# xmcd
#
# Track frame offsets:
#	150
#	19962
#	37055
#	57685
#	73657
#	92117
#	110145
#	128920
#	146255
#	164730
#
# Disc length: 2469 seconds
#
# Revision: 4
# Processed by: cddbd v1.5.2PL0 Copyright (c) Steve Scherf et al.
# Submitted via: EasyCDDAExtractor 10.0.3.1
#
DISCID=9c09a30a
DTITLE=Cool - Destined The Best
DYEAR=1996
DGENRE=Dance
TTITLE0=루시퍼의 변명
TTITLE1=운명
TTITLE2=너의 집앞에서
TTITLE3=현실+상상
TTITLE4=너의 지나간 사랑
TTITLE5=결별
TTITLE6=짧은 사랑
TTITLE7=지금까지
TTITLE8=슬퍼지려 하기 전에
TTITLE9=³ÊÀÇ Áý¾Õ¿¡¼­ ~MR
EXTD=
EXTT0=
EXTT1=
EXTT2=
EXTT3=
EXTT4=
EXTT5=
EXTT6=
EXTT7=
EXTT8=
EXTT9=
PLAYORDER=
